<svg xmlns="http://www.w3.org/2000/svg" viewBox="0 0 207.13 204.09"><defs><style>.cls-1{fill:#000;}.cls-2{fill:#fff;}</style></defs><g id="レイヤー_2" data-name="レイヤー 2"><g id="レイヤー_2-2" data-name="レイヤー 2"><path class="cls-1" d="M103.28,195.59a17,17,0,0,1-16.5-12.88l-2-8.19a17,17,0,0,1-16.51,21.07H25.51a17,17,0,0,1-17-17V25.51a17,17,0,0,1,17-17H86.64a17,17,0,0,1,16.5,12.89l2,8.15a17,17,0,0,1,16.52-21h21.64a17,17,0,0,1,16.5,12.89L198.1,174.46a17,17,0,0,1-16.5,21.13ZM84.69,174.36,73.78,130.72a.62.62,0,0,0-.11-.23Z"/><path class="cls-2" d="M143.33,17a8.49,8.49,0,0,1,8.25,6.44l38.27,153.07a8.5,8.5,0,0,1-8.25,10.57H103.28A8.51,8.51,0,0,1,95,180.65l-13-52a8.83,8.83,0,0,0-8.39-6.76,8.49,8.49,0,0,0-8.19,10.57l11,44.06a8.51,8.51,0,0,1-8.25,10.57H25.51a8.51,8.51,0,0,1-8.5-8.51V25.51a8.51,8.51,0,0,1,8.5-8.5H86.64a8.49,8.49,0,0,1,8.25,6.44l20.17,80.66a8.5,8.5,0,0,0,8.24,6.44,8.5,8.5,0,0,0,8.18-10.86l-18-72.12A8.5,8.5,0,0,1,121.7,17h21.63m0-17H121.7a25.3,25.3,0,0,0-17.52,7A25.45,25.45,0,0,0,86.64,0H25.51A25.53,25.53,0,0,0,0,25.51V178.58a25.53,25.53,0,0,0,25.51,25.51H68.22a25.33,25.33,0,0,0,17.52-7,25.49,25.49,0,0,0,17.54,7H181.6a25.51,25.51,0,0,0,24.75-31.69L168.09,19.32A25.49,25.49,0,0,0,143.33,0Z"/></g></g></svg>