<?xml version="1.0" encoding="UTF-8"?><svg id="_レイヤー_2" xmlns="http://www.w3.org/2000/svg" viewBox="0 0 207.13 204.09"><defs><style>.cls-1{fill:#fff;}.cls-2{fill:#0a6133;}</style></defs><g id="_レイヤー_2-2"><path class="cls-2" d="M103.28,195.59c-7.82,0-14.6-5.3-16.5-12.88l-2.05-8.18c1.25,5.1.12,10.39-3.11,14.53-3.25,4.16-8.13,6.54-13.41,6.54H25.51c-9.38,0-17.01-7.63-17.01-17.01V25.51c0-9.38,7.63-17.01,17.01-17.01h61.13c7.82,0,14.6,5.3,16.5,12.88l2.04,8.15c-1.24-5.09-.11-10.37,3.12-14.5,3.25-4.16,8.13-6.54,13.41-6.54h21.63c7.82,0,14.6,5.3,16.5,12.88l38.27,153.07c1.28,5.12.15,10.43-3.09,14.59s-8.13,6.54-13.41,6.54h-78.32ZM84.69,174.36l-10.91-43.64c-.02-.09-.07-.17-.11-.22l11.02,43.86Z"/><path class="cls-1" d="M143.33,17.01c3.9,0,7.3,2.66,8.25,6.44l38.27,153.07c1.34,5.37-2.72,10.57-8.25,10.57h-78.32c-3.9,0-7.3-2.66-8.25-6.44l-13-51.99c-.98-3.92-4.48-6.76-8.39-6.76-.49,0-.99.05-1.49.14-4.86.91-7.88,5.7-6.7,10.42l11.02,44.06c1.34,5.37-2.72,10.57-8.25,10.57H25.51c-4.7,0-8.5-3.81-8.5-8.5V25.51c0-4.7,3.81-8.5,8.5-8.5h61.13c3.9,0,7.3,2.66,8.25,6.44l20.17,80.66c.97,3.86,4.43,6.44,8.24,6.44.95,0,1.92-.16,2.89-.5,4.17-1.48,6.37-6.07,5.3-10.36l-18.03-72.12c-1.34-5.37,2.72-10.57,8.25-10.57h21.63M143.33,0h-21.63c-6.62,0-12.83,2.5-17.53,6.97-4.61-4.36-10.82-6.97-17.53-6.97H25.51C11.44,0,0,11.44,0,25.51v153.07c0,14.07,11.44,25.51,25.51,25.51h42.7c6.62,0,12.83-2.5,17.53-6.97,4.61,4.36,10.82,6.97,17.53,6.97h78.32c7.91,0,15.24-3.58,20.11-9.81,4.87-6.24,6.56-14.21,4.64-21.89L168.09,19.32c-2.84-11.38-13.02-19.32-24.75-19.32h0Z"/></g></svg>