<svg xmlns="http://www.w3.org/2000/svg" viewBox="0 0 430.87 204.09"><defs><style>.cls-1{fill:#f5f5f5;}.cls-2{fill:#555;}</style></defs><g id="レイヤー_2" data-name="レイヤー 2"><g id="レイヤー_2-2" data-name="レイヤー 2"><path class="cls-1" d="M301.7,195.59a17,17,0,0,1-16.5-12.88L246.94,29.64A17,17,0,0,1,263.44,8.5h21.63a17,17,0,0,1,16.5,12.89l38.27,153.07a17,17,0,0,1-16.5,21.13Z"/><path class="cls-2" d="M285.07,17a8.5,8.5,0,0,1,8.25,6.44l38.27,153.07a8.51,8.51,0,0,1-8.25,10.57H301.7a8.51,8.51,0,0,1-8.25-6.44L255.19,27.57A8.5,8.5,0,0,1,263.44,17h21.63m0-17H263.44a25.51,25.51,0,0,0-24.75,31.7L277,184.77a25.48,25.48,0,0,0,24.75,19.32h21.64a25.52,25.52,0,0,0,24.75-31.69L309.82,19.32A25.48,25.48,0,0,0,285.07,0Z"/><path class="cls-1" d="M216.67,195.59a17,17,0,0,1-16.5-12.88L161.9,29.64A17,17,0,0,1,178.4,8.5h45.72a17,17,0,0,1,16.5,21.14L227.3,82.94a17,17,0,0,1,33,.07l22.86,91.45a17,17,0,0,1-16.5,21.13Z"/><path class="cls-2" d="M224.12,17a8.5,8.5,0,0,1,8.25,10.56l-18,72.15a8.68,8.68,0,0,0,4.6,10,8.78,8.78,0,0,0,3.59.78,8.51,8.51,0,0,0,8.24-6.44l4.76-19a8.5,8.5,0,0,1,16.5,0l22.86,91.45a8.51,8.51,0,0,1-8.25,10.57h-50a8.5,8.5,0,0,1-8.25-6.44L170.15,27.57A8.5,8.5,0,0,1,178.4,17h45.72m0-17H178.4a25.51,25.51,0,0,0-24.75,31.7l38.27,153.07a25.46,25.46,0,0,0,24.75,19.32h50a25.51,25.51,0,0,0,24.75-31.7L268.53,80.94a25.17,25.17,0,0,0-24.75-19.32c-.81,0-1.62,0-2.41.11l7.5-30A25.51,25.51,0,0,0,224.12,0Z"/><path class="cls-1" d="M103.28,195.59a17,17,0,0,1-16.5-12.88l-2-8.19a17,17,0,0,1-16.51,21.07H25.51a17,17,0,0,1-17-17V25.51a17,17,0,0,1,17-17H86.64a17,17,0,0,1,16.5,12.89l2,8.18A17,17,0,0,1,121.7,8.5h21.63a17,17,0,0,1,16.5,12.89L198.1,174.46a17,17,0,0,1-16.5,21.13ZM84.69,174.35,73.78,130.72a.62.62,0,0,0-.11-.23Z"/><path class="cls-2" d="M143.33,17a8.49,8.49,0,0,1,8.25,6.44l38.27,153.07a8.5,8.5,0,0,1-8.25,10.57H103.28A8.51,8.51,0,0,1,95,180.65l-13-52a8.83,8.83,0,0,0-8.39-6.76,8.49,8.49,0,0,0-8.19,10.57l11,44.06a8.51,8.51,0,0,1-8.25,10.57H25.51a8.51,8.51,0,0,1-8.5-8.51V25.51a8.51,8.51,0,0,1,8.5-8.5H86.64a8.49,8.49,0,0,1,8.25,6.44l20.17,80.66a8.5,8.5,0,0,0,8.24,6.44,8.5,8.5,0,0,0,8.18-10.86l-18-72.12A8.5,8.5,0,0,1,121.7,17h21.63m0-17H121.7a25.3,25.3,0,0,0-17.52,7A25.45,25.45,0,0,0,86.64,0H25.51A25.53,25.53,0,0,0,0,25.51V178.58a25.53,25.53,0,0,0,25.51,25.51H68.22a25.33,25.33,0,0,0,17.52-7,25.49,25.49,0,0,0,17.54,7H181.6a25.51,25.51,0,0,0,24.75-31.7L168.09,19.32A25.49,25.49,0,0,0,143.33,0Z"/><path class="cls-1" d="M358.4,195.59a17,17,0,0,1-16.5-12.88L303.63,29.64A17,17,0,0,1,320.13,8.5h21.63a17,17,0,0,1,16.5,12.89l2.05,8.18A17,17,0,0,1,376.82,8.5h28.53a17,17,0,0,1,17,17V178.58a17,17,0,0,1-17,17Z"/><path class="cls-2" d="M405.35,17a8.51,8.51,0,0,1,8.51,8.5V178.58a8.51,8.51,0,0,1-8.51,8.51h-47a8.51,8.51,0,0,1-8.25-6.44L311.88,27.57A8.5,8.5,0,0,1,320.13,17h21.63A8.5,8.5,0,0,1,350,23.45l13.08,52.31a8.48,8.48,0,0,0,11.13,5.94,8.7,8.7,0,0,0,5.3-10.35L368.57,27.57A8.5,8.5,0,0,1,376.82,17h28.53m0-17H376.82a25.34,25.34,0,0,0-17.53,7,25.41,25.41,0,0,0-17.53-7H320.13a25.51,25.51,0,0,0-24.75,31.7l38.27,153.07a25.46,25.46,0,0,0,24.75,19.32h47a25.54,25.54,0,0,0,25.52-25.51V25.51A25.54,25.54,0,0,0,405.35,0Z"/></g></g></svg>