<svg xmlns="http://www.w3.org/2000/svg" viewBox="0 0 396.85 170.08"><defs><style>.cls-1{fill:#006400;}</style></defs><g id="レイヤー_2" data-name="レイヤー 2"><g id="レイヤー_2-2" data-name="レイヤー 2"><path class="cls-1" d="M268.06,0H246.43a8.51,8.51,0,0,0-8.25,10.57l38.27,153.07a8.5,8.5,0,0,0,8.25,6.44h21.63a8.51,8.51,0,0,0,8.25-10.57L276.31,6.44A8.51,8.51,0,0,0,268.06,0Z"/><path class="cls-1" d="M235,68.06c-2.15-8.59-14.35-8.59-16.5,0l-4.76,19a8.5,8.5,0,0,1-8.24,6.45,8.51,8.51,0,0,1-8.19-10.84l18-72.14A8.5,8.5,0,0,0,207.11,0H161.39a8.51,8.51,0,0,0-8.25,10.57l38.27,153.07a8.51,8.51,0,0,0,8.25,6.44h50a8.5,8.5,0,0,0,8.25-10.57Z"/><path class="cls-1" d="M48.44,115.45A8.51,8.51,0,0,1,55.14,105,8.73,8.73,0,0,1,65,111.65l13,52a8.51,8.51,0,0,0,8.25,6.44h78.32a8.5,8.5,0,0,0,8.25-10.57L134.58,6.44A8.51,8.51,0,0,0,126.33,0H104.7a8.5,8.5,0,0,0-8.25,10.57l18,72.11a8.53,8.53,0,0,1-8.19,10.87,8.51,8.51,0,0,1-8.24-6.45L77.88,6.44A8.5,8.5,0,0,0,69.63,0H8.5A8.51,8.51,0,0,0,0,8.5V161.57a8.51,8.51,0,0,0,8.5,8.51H51.21a8.51,8.51,0,0,0,8.25-10.57Z"/><path class="cls-1" d="M351.56,10.57l10.95,43.77a8.71,8.71,0,0,1-5.3,10.36,8.62,8.62,0,0,1-2.89.5,8.51,8.51,0,0,1-8.24-6.44L333,6.44A8.51,8.51,0,0,0,324.75,0H303.12a8.51,8.51,0,0,0-8.25,10.57l38.27,153.07a8.51,8.51,0,0,0,8.25,6.44h47a8.51,8.51,0,0,0,8.5-8.51V8.5a8.51,8.51,0,0,0-8.5-8.5H359.82A8.51,8.51,0,0,0,351.56,10.57Z"/></g></g></svg>