<?xml version="1.0" encoding="UTF-8"?><svg id="_レイヤー_2" xmlns="http://www.w3.org/2000/svg" viewBox="0 0 430.87 204.09"><defs><style>.cls-1{fill:#fff;}.cls-2{fill:#0a6133;}</style></defs><g id="_レイヤー_2-2"><rect class="cls-1" x="0" y="0" width="430.87" height="204.09" rx="25.56" ry="25.56"/><path class="cls-2" d="M301.7,195.59c-7.82,0-14.6-5.3-16.5-12.88L246.94,29.64c-1.28-5.12-.15-10.43,3.09-14.59s8.13-6.54,13.41-6.54h21.63c7.82,0,14.6,5.3,16.5,12.88l38.27,153.07c1.28,5.12.15,10.43-3.09,14.59s-8.13,6.54-13.41,6.54h-21.63Z"/><path class="cls-1" d="M285.07,17.01c3.9,0,7.3,2.66,8.25,6.44l38.27,153.07c1.34,5.37-2.72,10.57-8.25,10.57h-21.63c-3.9,0-7.3-2.66-8.25-6.44L255.19,27.57c-1.34-5.37,2.72-10.57,8.25-10.57h21.63M285.07,0h-21.63c-7.91,0-15.24,3.58-20.11,9.81-4.87,6.24-6.56,14.21-4.64,21.89l38.27,153.07c2.84,11.38,13.02,19.32,24.75,19.32h21.63c7.91,0,15.24-3.58,20.11-9.81,4.87-6.24,6.56-14.21,4.64-21.89l-38.27-153.07c-2.84-11.38-13.02-19.32-24.75-19.32h0Z"/><path class="cls-2" d="M216.67,195.59c-7.82,0-14.6-5.3-16.5-12.88L161.9,29.64c-1.28-5.12-.15-10.43,3.09-14.59s8.13-6.54,13.41-6.54h45.72c5.27,0,10.16,2.38,13.41,6.54s4.37,9.48,3.09,14.59l-13.33,53.3c1.95-7.67,8.56-12.81,16.48-12.81s14.57,5.18,16.5,12.88l22.86,91.45c1.28,5.12.15,10.43-3.09,14.59s-8.13,6.54-13.41,6.54h-49.98Z"/><path class="cls-1" d="M224.12,17.01c5.53,0,9.59,5.2,8.25,10.57l-18.04,72.14c-1,4.01.84,8.34,4.6,10.05,1.18.54,2.4.79,3.59.79,3.81,0,7.28-2.58,8.24-6.44l4.76-19.04c1.07-4.29,4.66-6.44,8.25-6.44s7.18,2.15,8.25,6.44l22.86,91.45c1.34,5.37-2.72,10.57-8.25,10.57h-49.98c-3.9,0-7.3-2.66-8.25-6.44L170.15,27.57c-1.34-5.37,2.72-10.57,8.25-10.57h45.72M224.12,0h-45.72c-7.91,0-15.24,3.58-20.11,9.81-4.87,6.24-6.56,14.21-4.64,21.89l38.27,153.07c2.84,11.38,13.02,19.32,24.75,19.32h49.98c7.91,0,15.24-3.58,20.11-9.81,4.87-6.24,6.56-14.21,4.64-21.89l-22.86-91.45c-2.89-11.56-12.84-19.32-24.75-19.32-.81,0-1.62.04-2.41.11l7.51-30.03c1.92-7.67.23-15.65-4.64-21.89-4.87-6.24-12.2-9.81-20.11-9.81h0Z"/><path class="cls-2" d="M103.28,195.59c-7.82,0-14.6-5.3-16.5-12.88l-2.05-8.18c1.25,5.1.12,10.39-3.11,14.53-3.25,4.16-8.13,6.54-13.41,6.54H25.51c-9.38,0-17.01-7.63-17.01-17.01V25.51c0-9.38,7.63-17.01,17.01-17.01h61.13c7.82,0,14.6,5.3,16.5,12.88l2.05,8.18c-1.25-5.1-.12-10.39,3.11-14.53,3.25-4.16,8.13-6.54,13.41-6.54h21.63c7.82,0,14.6,5.3,16.5,12.88l38.27,153.07c1.28,5.12.15,10.43-3.09,14.59s-8.13,6.54-13.41,6.54h-78.32ZM84.69,174.35l-10.91-43.64c-.02-.09-.07-.17-.11-.22l11.02,43.86Z"/><path class="cls-1" d="M143.33,17.01c3.9,0,7.3,2.66,8.25,6.44l38.27,153.07c1.34,5.37-2.72,10.57-8.25,10.57h-78.32c-3.9,0-7.3-2.66-8.25-6.44l-13-51.99c-.98-3.92-4.48-6.76-8.39-6.76-.49,0-.99.05-1.49.14-4.86.91-7.88,5.7-6.7,10.42l11.02,44.06c1.34,5.37-2.72,10.57-8.25,10.57H25.51c-4.7,0-8.5-3.81-8.5-8.5V25.51c0-4.7,3.81-8.5,8.5-8.5h61.13c3.9,0,7.3,2.66,8.25,6.44l20.17,80.66c.97,3.86,4.43,6.44,8.24,6.44.95,0,1.92-.16,2.89-.5,4.17-1.48,6.37-6.07,5.3-10.36l-18.03-72.12c-1.34-5.37,2.72-10.57,8.25-10.57h21.63M143.33,0h-21.63c-6.62,0-12.83,2.5-17.53,6.97-4.61-4.36-10.82-6.97-17.53-6.97H25.51C11.44,0,0,11.44,0,25.51v153.07c0,14.07,11.44,25.51,25.51,25.51h42.7c6.62,0,12.83-2.5,17.53-6.97,4.61,4.36,10.82,6.97,17.53,6.97h78.32c7.91,0,15.24-3.58,20.11-9.81,4.87-6.24,6.56-14.21,4.64-21.89L168.09,19.32c-2.84-11.38-13.02-19.32-24.75-19.32h0Z"/><path class="cls-2" d="M358.4,195.59c-7.82,0-14.6-5.3-16.5-12.88l-38.27-153.07c-1.28-5.12-.15-10.43,3.09-14.59s8.13-6.54,13.41-6.54h21.63c7.82,0,14.6,5.3,16.5,12.88l2.05,8.19c-1.25-5.1-.12-10.39,3.11-14.53,3.25-4.16,8.13-6.54,13.41-6.54h28.53c9.38,0,17.01,7.63,17.01,17.01v153.07c0,9.38-7.63,17.01-17.01,17.01h-46.96Z"/><path class="cls-1" d="M405.35,17.01c4.7,0,8.5,3.81,8.5,8.5v153.07c0,4.7-3.81,8.5-8.5,8.5h-46.96c-3.9,0-7.3-2.66-8.25-6.44l-38.27-153.07c-1.34-5.37,2.72-10.57,8.25-10.57h21.63c3.9,0,7.3,2.66,8.25,6.44l13.08,52.31c.97,3.86,4.43,6.44,8.24,6.44.95,0,1.92-.16,2.89-.5,4.17-1.48,6.37-6.07,5.3-10.36l-10.94-43.77c-1.34-5.37,2.72-10.57,8.25-10.57h28.53M405.35,0h-28.53c-6.62,0-12.83,2.5-17.53,6.97-4.61-4.36-10.82-6.97-17.53-6.97h-21.63c-7.91,0-15.24,3.58-20.11,9.81-4.87,6.24-6.56,14.21-4.64,21.89l38.27,153.07c2.84,11.38,13.02,19.32,24.75,19.32h46.96c14.07,0,25.51-11.44,25.51-25.51V25.51c0-14.07-11.44-25.51-25.51-25.51h0Z"/></g></svg>