<svg xmlns="http://www.w3.org/2000/svg" viewBox="0 0 402.52 175.75"><defs><style>.cls-1{fill:#555;}</style></defs><g id="レイヤー_2" data-name="レイヤー 2"><g id="レイヤー_2-2" data-name="レイヤー 2"><path class="cls-1" d="M270.89,2.83a8.49,8.49,0,0,1,8.25,6.45l38.27,153.07a8.5,8.5,0,0,1-8.25,10.56H287.53a8.5,8.5,0,0,1-8.25-6.44L241,13.4a8.51,8.51,0,0,1,8.25-10.57h21.63m0-2.83H249.26a11.35,11.35,0,0,0-11,14.09l38.27,153.07a11.33,11.33,0,0,0,11,8.59h21.63a11.33,11.33,0,0,0,11-14.09L281.89,8.59a11.31,11.31,0,0,0-11-8.59Z"/><path class="cls-1" d="M210,2.83A8.51,8.51,0,0,1,218.2,13.4l-18,72.14a8.68,8.68,0,0,0,4.61,10,8.5,8.5,0,0,0,11.83-5.65l4.76-19a8.5,8.5,0,0,1,16.5,0l22.86,91.45a8.5,8.5,0,0,1-8.25,10.56h-50a8.5,8.5,0,0,1-8.25-6.44L156,13.4a8.51,8.51,0,0,1,8.25-10.57H210M210,0H164.22a11.35,11.35,0,0,0-11,14.09l38.27,153.07a11.33,11.33,0,0,0,11,8.59h50a11.33,11.33,0,0,0,11-14.09L240.61,70.21a11.34,11.34,0,0,0-22,0l-4.76,19A5.66,5.66,0,0,1,205.94,93a5.88,5.88,0,0,1-3-6.78l18-72.14A11.33,11.33,0,0,0,210,0Z"/><path class="cls-1" d="M129.16,2.83a8.5,8.5,0,0,1,8.25,6.45l38.27,153.07a8.5,8.5,0,0,1-8.25,10.56H89.11a8.49,8.49,0,0,1-8.25-6.44l-13-52a8.83,8.83,0,0,0-8.39-6.76,7.59,7.59,0,0,0-1.49.14,8.5,8.5,0,0,0-6.7,10.42l11,44.07A8.49,8.49,0,0,1,54,172.91H11.34a8.5,8.5,0,0,1-8.51-8.5V11.34a8.51,8.51,0,0,1,8.51-8.51H72.47a8.51,8.51,0,0,1,8.25,6.45l20.16,80.66a8.52,8.52,0,0,0,8.25,6.44,8.61,8.61,0,0,0,2.88-.5,8.71,8.71,0,0,0,5.3-10.36l-18-72.12a8.51,8.51,0,0,1,8.25-10.57h21.63m0-2.83H107.53a11.33,11.33,0,0,0-11,14.09l18,72.12a5.68,5.68,0,0,1-5.43,7.34,5.68,5.68,0,0,1-5.5-4.3L83.47,8.59A11.33,11.33,0,0,0,72.47,0H11.34A11.36,11.36,0,0,0,0,11.34V164.41a11.36,11.36,0,0,0,11.34,11.34H54a11.33,11.33,0,0,0,11-14.09L54,117.6a5.56,5.56,0,0,1,.73-4.44,5.65,5.65,0,0,1,3.74-2.52,5.31,5.31,0,0,1,1-.09,6,6,0,0,1,5.64,4.62l13,52a11.31,11.31,0,0,0,11,8.59h78.32a11.33,11.33,0,0,0,11-14.09L140.16,8.59a11.32,11.32,0,0,0-11-8.59Z"/><path class="cls-1" d="M391.18,2.83a8.51,8.51,0,0,1,8.51,8.51V164.41a8.5,8.5,0,0,1-8.51,8.5h-47a8.5,8.5,0,0,1-8.25-6.44L297.71,13.4A8.5,8.5,0,0,1,306,2.83h21.63a8.51,8.51,0,0,1,8.25,6.45l13.08,52.31A8.5,8.5,0,0,0,357.16,68a8.5,8.5,0,0,0,8.18-10.86L354.4,13.4a8.51,8.51,0,0,1,8.25-10.57h28.53m0-2.83H362.65a11.33,11.33,0,0,0-11,14.09l10.94,43.77a5.87,5.87,0,0,1-3.49,7,6,6,0,0,1-1.94.34,5.66,5.66,0,0,1-5.49-4.3L338.59,8.59a11.33,11.33,0,0,0-11-8.59H306a11.33,11.33,0,0,0-11,14.09l38.26,153.07a11.33,11.33,0,0,0,11,8.59h47a11.36,11.36,0,0,0,11.34-11.34V11.34A11.36,11.36,0,0,0,391.18,0Z"/></g></g></svg>